<svg id="visual" viewBox="0 0 1920 1080" width="1920" height="1080" xmlns="http://www.w3.org/2000/svg" xmlns:xlink="http://www.w3.org/1999/xlink" version="1.1"><path d="M0 98L29.2 112.5C58.3 127 116.7 156 174.8 161.5C233 167 291 149 349.2 154.3C407.3 159.7 465.7 188.3 523.8 197.3C582 206.3 640 195.7 698.2 188.5C756.3 181.3 814.7 177.7 872.8 188.3C931 199 989 224 1047.2 224C1105.3 224 1163.7 199 1221.8 195.5C1280 192 1338 210 1396.2 217.2C1454.3 224.3 1512.7 220.7 1570.8 213.5C1629 206.3 1687 195.7 1745.2 184.8C1803.3 174 1861.7 163 1890.8 157.5L1920 152L1920 0L1890.8 0C1861.7 0 1803.3 0 1745.2 0C1687 0 1629 0 1570.8 0C1512.7 0 1454.3 0 1396.2 0C1338 0 1280 0 1221.8 0C1163.7 0 1105.3 0 1047.2 0C989 0 931 0 872.8 0C814.7 0 756.3 0 698.2 0C640 0 582 0 523.8 0C465.7 0 407.3 0 349.2 0C291 0 233 0 174.8 0C116.7 0 58.3 0 29.2 0L0 0Z" fill="#ffffff"></path><path d="M0 411L29.2 416.5C58.3 422 116.7 433 174.8 451C233 469 291 494 349.2 508.3C407.3 522.7 465.7 526.3 523.8 513.8C582 501.3 640 472.7 698.2 476.3C756.3 480 814.7 516 872.8 537.5C931 559 989 566 1047.2 531.8C1105.3 497.7 1163.7 422.3 1221.8 429.7C1280 437 1338 527 1396.2 572C1454.3 617 1512.7 617 1570.8 609.7C1629 602.3 1687 587.7 1745.2 587.7C1803.3 587.7 1861.7 602.3 1890.8 609.7L1920 617L1920 150L1890.8 155.5C1861.7 161 1803.3 172 1745.2 182.8C1687 193.7 1629 204.3 1570.8 211.5C1512.7 218.7 1454.3 222.3 1396.2 215.2C1338 208 1280 190 1221.8 193.5C1163.7 197 1105.3 222 1047.2 222C989 222 931 197 872.8 186.3C814.7 175.7 756.3 179.3 698.2 186.5C640 193.7 582 204.3 523.8 195.3C465.7 186.3 407.3 157.7 349.2 152.3C291 147 233 165 174.8 159.5C116.7 154 58.3 125 29.2 110.5L0 96Z" fill="#f6e57c"></path><path d="M0 692L29.2 702.8C58.3 713.7 116.7 735.3 174.8 751.5C233 767.7 291 778.3 349.2 771.2C407.3 764 465.7 739 523.8 749.8C582 760.7 640 807.3 698.2 812.7C756.3 818 814.7 782 872.8 767.7C931 753.3 989 760.7 1047.2 773.3C1105.3 786 1163.7 804 1221.8 814.8C1280 825.7 1338 829.3 1396.2 827.5C1454.3 825.7 1512.7 818.3 1570.8 818.3C1629 818.3 1687 825.7 1745.2 823.8C1803.3 822 1861.7 811 1890.8 805.5L1920 800L1920 615L1890.8 607.7C1861.7 600.3 1803.3 585.7 1745.2 585.7C1687 585.7 1629 600.3 1570.8 607.7C1512.7 615 1454.3 615 1396.2 570C1338 525 1280 435 1221.8 427.7C1163.7 420.3 1105.3 495.7 1047.2 529.8C989 564 931 557 872.8 535.5C814.7 514 756.3 478 698.2 474.3C640 470.7 582 499.3 523.8 511.8C465.7 524.3 407.3 520.7 349.2 506.3C291 492 233 467 174.8 449C116.7 431 58.3 420 29.2 414.5L0 409Z" fill="#e7d600"></path><path d="M0 876L29.2 881.3C58.3 886.7 116.7 897.3 174.8 913.5C233 929.7 291 951.3 349.2 949.5C407.3 947.7 465.7 922.3 523.8 924.2C582 926 640 955 698.2 951.5C756.3 948 814.7 912 872.8 895.8C931 879.7 989 883.3 1047.2 894.2C1105.3 905 1163.7 923 1221.8 933.7C1280 944.3 1338 947.7 1396.2 938.7C1454.3 929.7 1512.7 908.3 1570.8 913.8C1629 919.3 1687 951.7 1745.2 964.2C1803.3 976.7 1861.7 969.3 1890.8 965.7L1920 962L1920 798L1890.8 803.5C1861.7 809 1803.3 820 1745.2 821.8C1687 823.7 1629 816.3 1570.8 816.3C1512.7 816.3 1454.3 823.7 1396.2 825.5C1338 827.3 1280 823.7 1221.8 812.8C1163.7 802 1105.3 784 1047.2 771.3C989 758.7 931 751.3 872.8 765.7C814.7 780 756.3 816 698.2 810.7C640 805.3 582 758.7 523.8 747.8C465.7 737 407.3 762 349.2 769.2C291 776.3 233 765.7 174.8 749.5C116.7 733.3 58.3 711.7 29.2 700.8L0 690Z" fill="#f6e57c"></path><path d="M0 1081L29.2 1081C58.3 1081 116.7 1081 174.8 1081C233 1081 291 1081 349.2 1081C407.3 1081 465.7 1081 523.8 1081C582 1081 640 1081 698.2 1081C756.3 1081 814.7 1081 872.8 1081C931 1081 989 1081 1047.2 1081C1105.3 1081 1163.7 1081 1221.8 1081C1280 1081 1338 1081 1396.2 1081C1454.3 1081 1512.7 1081 1570.8 1081C1629 1081 1687 1081 1745.2 1081C1803.3 1081 1861.7 1081 1890.8 1081L1920 1081L1920 960L1890.8 963.7C1861.7 967.3 1803.3 974.7 1745.2 962.2C1687 949.7 1629 917.3 1570.8 911.8C1512.7 906.3 1454.3 927.7 1396.2 936.7C1338 945.7 1280 942.3 1221.8 931.7C1163.7 921 1105.3 903 1047.2 892.2C989 881.3 931 877.7 872.8 893.8C814.7 910 756.3 946 698.2 949.5C640 953 582 924 523.8 922.2C465.7 920.3 407.3 945.7 349.2 947.5C291 949.3 233 927.7 174.8 911.5C116.7 895.3 58.3 884.7 29.2 879.3L0 874Z" fill="#ffffff"></path></svg>